<svg id="svg2" xmlns="http://www.w3.org/2000/svg" xmlns:xlink="http://www.w3.org/1999/xlink" viewBox="0 0 58.93 116.17"><defs><style>.cls-1{fill:green;}.cls-2{fill:url(#Degradado_sin_nombre_106);}.cls-3{fill:url(#Degradado_sin_nombre_107);}.cls-4{fill:url(#Degradado_sin_nombre_108);}.cls-5{fill:#1a1a1a;}.cls-6{fill:url(#Degradado_sin_nombre_109);}.cls-7{fill:url(#Degradado_sin_nombre_110);}.cls-11,.cls-8{fill:#fff;}.cls-8{fill-opacity:0.5;}.cls-9{fill:url(#Degradado_sin_nombre_111);}.cls-10{fill:url(#Degradado_sin_nombre_112);}.cls-12{fill:url(#Degradado_sin_nombre_113);}.cls-13{fill:url(#Degradado_sin_nombre_114);}.cls-14{fill:url(#Degradado_sin_nombre_115);}.cls-15{fill:url(#Degradado_sin_nombre_116);}.cls-16{fill-opacity:0.2;}.cls-17{fill:url(#Degradado_sin_nombre_117);}.cls-18{fill:url(#Degradado_sin_nombre_118);}.cls-19{fill:url(#Degradado_sin_nombre_119);}.cls-20{fill:url(#Degradado_sin_nombre_120);}</style><radialGradient id="Degradado_sin_nombre_106" cx="-225.15" cy="54.42" r="22.27" gradientTransform="matrix(0, -1, -0.83, 0, 76.87, -157.24)" gradientUnits="userSpaceOnUse"><stop offset="0" stop-color="#fff" stop-opacity="0.2"/><stop offset="1" stop-opacity="0.2"/></radialGradient><linearGradient id="Degradado_sin_nombre_107" x1="-275.17" y1="72.13" x2="-244.43" y2="72.13" gradientTransform="matrix(0, -1, -1, 0, 103.84, -157.24)" gradientUnits="userSpaceOnUse"><stop offset="0" stop-opacity="0.2"/><stop offset="1" stop-color="#fff" stop-opacity="0.2"/></linearGradient><radialGradient id="Degradado_sin_nombre_108" cx="-265.4" cy="77.6" r="13.28" gradientTransform="matrix(0, -2.45, -1.54, 0, 151.14, -628.47)" gradientUnits="userSpaceOnUse"><stop offset="0" stop-color="#7f7f7f"/><stop offset="1" stop-color="#1a1a1a"/></radialGradient><linearGradient id="Degradado_sin_nombre_109" x1="-221.09" y1="50.17" x2="-221.13" y2="54.26" gradientTransform="matrix(0, -1, -1, 0, 103.84, -157.24)" xlink:href="#Degradado_sin_nombre_108"/><radialGradient id="Degradado_sin_nombre_110" cx="-404.79" cy="92.81" r="10.79" gradientTransform="matrix(0, -1.81, -1.53, 0, 173.87, -622.09)" xlink:href="#Degradado_sin_nombre_108"/><radialGradient id="Degradado_sin_nombre_111" cx="-220.57" cy="-16.32" r="51.97" gradientTransform="matrix(0, -1, -0.5, 0, 23.49, -157.24)" xlink:href="#Degradado_sin_nombre_107"/><linearGradient id="Degradado_sin_nombre_112" x1="-188.85" y1="72.1" x2="-162.79" y2="72.1" gradientTransform="matrix(0, -1, -1, 0, 103.75, -157.24)" xlink:href="#Degradado_sin_nombre_107"/><linearGradient id="Degradado_sin_nombre_113" x1="-332.45" y1="48.63" x2="-328.91" y2="50.27" gradientTransform="matrix(0.14, -0.99, -0.99, -0.14, 142.69, -207.77)" gradientUnits="userSpaceOnUse"><stop offset="0" stop-color="#d40000"/><stop offset="1" stop-color="#ff6e6e"/></linearGradient><radialGradient id="Degradado_sin_nombre_114" cx="-175.79" cy="68.46" r="2.67" gradientTransform="matrix(0.25, -0.75, -1.5, -0.49, 203.8, -58.04)" xlink:href="#Degradado_sin_nombre_106"/><linearGradient id="Degradado_sin_nombre_115" x1="-356.92" y1="221.91" x2="-353.37" y2="223.55" gradientTransform="translate(-254.23 -207.69) rotate(-98.04)" xlink:href="#Degradado_sin_nombre_113"/><radialGradient id="Degradado_sin_nombre_116" cx="-245.17" cy="173.86" r="2.67" gradientTransform="matrix(-0.25, -0.75, 1.5, -0.49, -315.43, -58.04)" xlink:href="#Degradado_sin_nombre_106"/><linearGradient id="Degradado_sin_nombre_117" x1="-272.17" y1="72.25" x2="-225.13" y2="72.25" xlink:href="#Degradado_sin_nombre_107"/><linearGradient id="Degradado_sin_nombre_118" x1="-221.09" y1="225.17" x2="-221.13" y2="229.25" gradientTransform="translate(-215.5 -157.2) rotate(-90)" xlink:href="#Degradado_sin_nombre_108"/><linearGradient id="Degradado_sin_nombre_119" x1="-215.14" y1="51.13" x2="-215.18" y2="47.15" gradientTransform="matrix(0, -1, -1, 0, 103.84, -157.24)" xlink:href="#Degradado_sin_nombre_106"/><linearGradient id="Degradado_sin_nombre_120" x1="-215.14" y1="226.13" x2="-215.18" y2="222.14" gradientTransform="translate(-215.5 -157.2) rotate(-90)" xlink:href="#Degradado_sin_nombre_106"/></defs><g id="g5371"><g id="g5190"><path id="path4465" class="cls-1" d="M2.21,41.8a2,2,0,0,0,.13.63c.16.38,2.6-.36,4.4-1.25,1,8.78,2,36.15.91,43.75-4.9,29.55,4,34.42,24,34.56,20.07-.14,29-5,24.06-34.56-1.13-7.6-.09-35,.88-43.75,1.8.89,4.24,1.63,4.41,1.25.55-1.35-1-5-3.16-5.22a4,4,0,0,0-.78,0C61,1.42,42.51,3.33,31.68,3.33S2.39,1.42,6.31,37.24a4.44,4.44,0,0,0-.82,0C3.6,37.41,2.17,40.2,2.21,41.8Z" transform="translate(-2.21 -3.31)"/><path id="path4475" class="cls-2" d="M50.15,49.22C49,62,48.91,75.87,48.68,89.11a110.22,110.22,0,0,1-17.32,1.07A103.36,103.36,0,0,1,14.6,89.11c-.23-13.24-.28-27.15-1.47-39.89a48.72,48.72,0,0,1,18.51-3.58,48.53,48.53,0,0,1,18.51,3.58Z" transform="translate(-2.21 -3.31)"/><path id="path4467" class="cls-3" d="M8,106.11c-1.13-1.38-1.45-11.68-.77-18.92-1.25,10-1.76,19.45,2.78,25.62,8.33,3.45,7.33,5.12,21.68,5.12s13.48-1.54,21.76-5.09c4.58-6.14,4.19-15.66,2.7-25.65.68,7.24.36,17.54-.77,18.92-4.47,5-14.48,9.19-23.69,9.19S12.41,111.09,8,106.11Z" transform="translate(-2.21 -3.31)"/><path id="path4469" class="cls-4" d="M11.19,31.51l1.94,17.71a52.19,52.19,0,0,1,18.51-3.58,52.23,52.23,0,0,1,18.51,3.58l1.93-17.71c-5-6.32-12-8.84-20.44-8.84S16.25,25.19,11.19,31.51Z" transform="translate(-2.21 -3.31)"/><path id="path4471" class="cls-5" d="M11.19,31.51l.44,3.93c6.09-5.61,11.3-9.83,20-9.83s13.92,4.22,20,9.83l.43-3.93c-5.7-6-11-8.84-20.44-8.84S16.9,25.52,11.19,31.51Z" transform="translate(-2.21 -3.31)"/><path id="path4473" class="cls-6" d="M50.49,96.92c1.3-5.83,1.77-8,2.84-11.93-1-9.68-.38-43.3.37-54.18C49.74,52.65,49.08,77.4,50.49,96.92Z" transform="translate(-2.21 -3.31)"/><path id="path4477" class="cls-7" d="M48.68,89.11l-.35,16.1a37.27,37.27,0,0,1-16.69,4.47A37.24,37.24,0,0,1,15,105.21l-.35-16.1c5.52,1.07,12,1.07,17,1.07s11.52,0,17-1.07Z" transform="translate(-2.21 -3.31)"/><path id="path4479" class="cls-5" d="M48.44,100.11l-.11,5.1a33.39,33.39,0,0,1-33.38,0l-.11-5.1c4.39,4.71,12.56,8,16.8,8s12.41-3.3,16.8-8Z" transform="translate(-2.21 -3.31)"/><path id="path4481" class="cls-8" d="M10,112.81c4.12,6,14.2,6.56,21.73,6.66s17.52-.81,21.71-6.63c-7.42,2.78-5.95,5.09-21.71,5.09S17.38,115.6,10,112.81Z" transform="translate(-2.21 -3.31)"/><path id="path4483" class="cls-8" d="M9.28,11.52c4.94-7.18,9.25-8.18,22.41-8.18S49.31,4.4,54.1,11.52c-6.64-5-8.75-6.95-22.41-6.95S15.92,6.49,9.28,11.52Z" transform="translate(-2.21 -3.31)"/><path id="path4485" class="cls-9" d="M5.78,29.24c0,3.48.34,6.47.53,8.15a3.24,3.24,0,0,1,.65,0c.71-2.3,1.63-5.85,2.53-6.57,3.75,20,4.64,45.7,3.19,66.1A166.58,166.58,0,0,0,8.06,79.08C7.82,89.65,5.39,91.57,7.71,106c3.5,4,13.27,9.34,23.94,9.34S52,110,55.46,105.93c1.2-2.77,1.6-15.72-.31-26.88a166.39,166.39,0,0,0-4.66,17.88C49,76.52,50,50.85,53.71,30.8c.91.72,1.8,4.3,2.5,6.59a4.51,4.51,0,0,1,.66,0c.49-4.5,1.86-18.23-3-26,2.81,13.86-1.47,18.6-1.75,20.16a349.53,349.53,0,0,0-2.28,69.81c.76-2.43,3.23-7.29,4-9.72,0,4.42,1.51,12.54.18,13.94-3.11,4.08-14.25,9.37-22.34,9.38s-19.34-5.26-22.47-9.35c-1.32-1.4.15-9.51.19-13.94.77,2.44,3.23,7.29,4,9.72a350.27,350.27,0,0,0-2.28-69.81C10.81,30,6.53,25.28,9.34,11.43c-3.06,4.85-3.65,12-3.56,17.81Z" transform="translate(-2.21 -3.31)"/><path id="path4487" class="cls-10" d="M52.08,31.51a11.51,11.51,0,0,1,.75-1.6c2.43-4.7,3.05-10.4,1.08-18.53C45.27,5.3,34.62,5.66,31.64,5.66S18,5.3,9.36,11.38C7.4,19.51,8,25.21,10.44,29.91a10.46,10.46,0,0,1,.75,1.6c6.72-8.08,17.81-8.8,20.45-8.8s13.73.72,20.44,8.8Z" transform="translate(-2.21 -3.31)"/><path id="path4489" class="cls-11" d="M47.33,10.42a3.87,3.87,0,0,1,3.79.36c1.2.78,1.44,1.88.54,2.46a3.84,3.84,0,0,1-3.79-.35C46.67,12.11,46.43,11,47.33,10.42Z" transform="translate(-2.21 -3.31)"/><path id="path4491" class="cls-12" d="M50.59,110.69A42.36,42.36,0,0,1,44,113.41a2.27,2.27,0,0,0,.39,2.46,30.85,30.85,0,0,0,7.17-3,1.93,1.93,0,0,0-.94-2.15Z" transform="translate(-2.21 -3.31)"/><path id="path4493" class="cls-13" d="M57.87,37.21c2.17.23,3.72,3.85,3.16,5.2-.26.61-6.22-1.56-6.32-2.79-.14-1.72,1.41-2.6,3.16-2.41Z" transform="translate(-2.21 -3.31)"/><path id="path4495" class="cls-11" d="M15.07,11.17a3.84,3.84,0,0,0-3.79.35c-1.2.78-1.44,1.88-.54,2.47a3.87,3.87,0,0,0,3.79-.36C15.73,12.86,16,11.75,15.07,11.17Z" transform="translate(-2.21 -3.31)"/><path id="path4497" class="cls-14" d="M12.86,110.77a42.36,42.36,0,0,0,6.62,2.72,2.25,2.25,0,0,1-.39,2.46,30.65,30.65,0,0,1-7.17-3A1.93,1.93,0,0,1,12.86,110.77Z" transform="translate(-2.21 -3.31)"/><path id="path4499" class="cls-15" d="M5.49,37.21c-2.16.23-3.71,3.85-3.15,5.2.25.61,6.21-1.56,6.31-2.79.14-1.72-1.41-2.6-3.16-2.41Z" transform="translate(-2.21 -3.31)"/><path id="path4501" class="cls-16" d="M53.83,11.38c-7.07-5.29-9.77-6.81-22.16-6.81S16.58,6.09,9.51,11.38C16.9,6.22,24.12,5.66,31.67,5.66s14.77.56,22.16,5.72Z" transform="translate(-2.21 -3.31)"/><path id="path4503" class="cls-17" d="M48.33,105.21l.35-16.1c0-2.73.17-7,.41-21.22-.29,18,.66,31.82.73,33.43l4-9.72c-.06,4.78,1.67,11.85.21,13.94-4.4,5.39-16.47,9.39-22.37,9.39S13.41,111,9.17,105.58c-1.46-2.09.27-9.16.21-13.94l4,9.72c.86-9,.93-19.34.87-33.47.27,8.59.25,17.82.36,21.22l.35,16.1a31.69,31.69,0,0,0,16.69,4.47,31.69,31.69,0,0,0,16.69-4.47Z" transform="translate(-2.21 -3.31)"/><path id="path4505" class="cls-18" d="M12.84,97C11.54,91.13,11.07,89,10,85c1.05-9.68.38-43.3-.37-54.18C13.58,52.69,14.25,77.44,12.84,97Z" transform="translate(-2.21 -3.31)"/><path id="path4507" class="cls-19" d="M55.14,79.05,53.33,85c-1.25-17.83-.39-36.53.37-54.18a28.77,28.77,0,0,1,2.51,6.57,2.23,2.23,0,0,0-1.5,2.26c.07.67.83.83,1.91,1.54-1.09,12.53-1.4,25.24-1.48,37.87Z" transform="translate(-2.21 -3.31)"/><path id="path4509" class="cls-20" d="M8.19,79.09,10,85c1.25-17.83.39-36.53-.37-54.18a29.31,29.31,0,0,0-2.52,6.56,2.24,2.24,0,0,1,1.51,2.27c-.08.67-.83.83-1.91,1.53C7.8,53.75,8.11,66.46,8.19,79.09Z" transform="translate(-2.21 -3.31)"/></g></g></svg>